<svg xmlns="http://www.w3.org/2000/svg" width="16" height="16" viewBox="0 0 16 16" aria-hidden="true"><path fill="#0E1E25" d="M1.17 2C.523 2 0 2.545 0 3.222v8.556C0 12.455.522 13 1.17 13h13.66c.648 0 1.17-.545 1.17-1.222V3.222C16 2.545 15.478 2 14.83 2H1.17zm1.167 2.002a.36.36 0 01.3.115l4.846 4.996c.301.312.72.312 1.023 0l4.858-4.996a.354.354 0 01.52.023.463.463 0 01-.02.58l-2.748 2.828 2.742 2.72c.164.135.19.433.055.603a.356.356 0 01-.544.006l-2.794-2.77-1.569 1.61a1.38 1.38 0 01-2.024 0l-1.557-1.61-2.794 2.77a.356.356 0 01-.544-.006c-.136-.17-.109-.468.055-.603l2.742-2.72L2.136 4.72a.453.453 0 01-.11-.433.39.39 0 01.311-.285z"></path></svg>