<svg xmlns="http://www.w3.org/2000/svg" width="16" height="16" viewBox="0 0 16 16" aria-hidden="true"><g class="lockIcon" fill-rule="evenodd"><path class="locky-upper-part" fill-rule="nonzero" d="M5.047 4.123v.272c0 .188.076.367.208.493a.601.601 0 00.484.166h.013c.318-.035.56-.32.559-.66v-.271c0-.983.75-1.78 1.675-1.78h.11c.924 0 1.675.797 1.675 1.78v.992c.42-.047.837-.084 1.263-.105v-.89C11.033 2.398 9.72 1.002 8.098 1h-.11c-.78 0-1.527.329-2.08.914a3.224 3.224 0 00-.86 2.209z"></path><path class="fatBottomPart" d="M12.5 7.1v4.778a.69.69 0 01-.536.687l-.4.08a18.087 18.087 0 01-7.128 0l-.4-.08a.69.69 0 01-.536-.687V7.099a.69.69 0 01.536-.687l.059-.012a19.806 19.806 0 017.811 0l.06.012a.69.69 0 01.534.687z"></path></g></svg>